<svg width="18" height="17" viewBox="0 0 18 17" fill="none" xmlns="http://www.w3.org/2000/svg">
<path id="Vector" d="M12.5411 2.39391L11.7009 3.63652L12.5411 2.39391ZM16.5 9.84957H18H16.5ZM11.2405 1.51449L12.0807 0.271882L11.2405 1.51449ZM6.75949 1.51449L5.91931 0.271882L6.75949 1.51449ZM5.45887 2.3939L6.29906 3.63652L5.45887 2.3939ZM1.5 9.84957H3H1.5ZM1.5 11.7635L2.50037 12.8812L3 12.434V11.7635H1.5ZM16.5 11.7635H15V12.434L15.4996 12.8812L16.5 11.7635ZM11.7009 3.63652C13.7639 5.03139 15 7.35928 15 9.84957H18C18 6.36317 16.2695 3.10412 13.3813 1.15129L11.7009 3.63652ZM10.4003 2.7571L11.7009 3.63652L13.3813 1.15129L12.0807 0.271882L10.4003 2.7571ZM7.5997 2.7571C8.4456 2.18513 9.5544 2.18513 10.4003 2.7571L12.0807 0.271882C10.2196 -0.986461 7.7804 -0.986461 5.91931 0.271882L7.5997 2.7571ZM6.29906 3.63652L7.5997 2.7571L5.91931 0.271882L4.61868 1.15129L6.29906 3.63652ZM3 9.84957C3 7.35928 4.23608 5.03139 6.29906 3.63652L4.61868 1.15129C1.73051 3.10412 0 6.36317 0 9.84957H3ZM3 11.7635V9.84957H0V11.7635H3ZM2 13.9996C2 13.5555 2.1911 13.158 2.50037 12.8812L0.49963 10.6458C-0.4186 11.4676 -1 12.6667 -1 13.9996H2ZM3.5 15.4996C2.67157 15.4996 2 14.828 2 13.9996H-1C-1 16.4849 1.01472 18.4996 3.5 18.4996V15.4996ZM14.5 15.4996H3.5V18.4996H14.5V15.4996ZM16 13.9996C16 14.828 15.3284 15.4996 14.5 15.4996V18.4996C16.9853 18.4996 19 16.4849 19 13.9996H16ZM15.4996 12.8812C15.8089 13.158 16 13.5555 16 13.9996H19C19 12.6667 18.4186 11.4676 17.5004 10.6458L15.4996 12.8812ZM15 9.84957V11.7635H18V9.84957H15Z" fill="#676767"/>
</svg>
